HIERARCHY
ROOT Hips
{
	OFFSET 0.000000 0.000000 0.000000
	CHANNELS 6 Xposition Yposition Zposition Zrotation Yrotation Xrotation 
	JOINT LHipJoint
	{
		OFFSET 0.000000 0.000000 0.000000
		CHANNELS 3 Zrotation Yrotation Xrotation
		JOINT LeftUpLeg
		{
			OFFSET 1.363060 -1.794630 0.839290
			CHANNELS 3 Zrotation Yrotation Xrotation
			JOINT LeftLeg
			{
				OFFSET 2.448110 -6.726130 0.000000
				CHANNELS 3 Zrotation Yrotation Xrotation
				JOINT LeftFoot
				{
					OFFSET 2.562200 -7.039590 0.000000
					CHANNELS 3 Zrotation Yrotation Xrotation
					JOINT LeftToeBase
					{
						OFFSET 0.157640 -0.433110 2.322550
						CHANNELS 3 Zrotation Yrotation Xrotation
						End Site
						{
							OFFSET 0.000000 0.000000 0.000000
						}
					}
				}
			}
		}
	}
	JOINT RHipJoint
	{
		OFFSET 0.000000 0.000000 0.000000
		CHANNELS 3 Zrotation Yrotation Xrotation
		JOINT RightUpLeg
		{
			OFFSET -1.305520 -1.794630 0.839290
			CHANNELS 3 Zrotation Yrotation Xrotation
			JOINT RightLeg
			{
				OFFSET -2.542530 -6.985550 0.000000
				CHANNELS 3 Zrotation Yrotation Xrotation
				JOINT RightFoot
				{
					OFFSET -2.568260 -7.056230 0.000000
					CHANNELS 3 Zrotation Yrotation Xrotation
					JOINT RightToeBase
					{
						OFFSET -0.164730 -0.452590 2.363150
						CHANNELS 3 Zrotation Yrotation Xrotation
						End Site
						{
							OFFSET 0.000000 0.000000 0.000000
						}
					}
				}
			}
		}
	}
	JOINT LowerBack
	{
		OFFSET 0.000000 0.000000 0.000000
		CHANNELS 3 Zrotation Yrotation Xrotation
		JOINT Spine
		{
			OFFSET 0.028270 2.035590 -0.193380
			CHANNELS 3 Zrotation Yrotation Xrotation
			JOINT Spine1
			{
				OFFSET 0.056720 2.048850 -0.042750
				CHANNELS 3 Zrotation Yrotation Xrotation
				JOINT Neck
				{
					OFFSET 0.000000 0.000000 0.000000
					CHANNELS 3 Zrotation Yrotation Xrotation
					JOINT Neck1
					{
						OFFSET -0.054170 1.746240 0.172020
						CHANNELS 3 Zrotation Yrotation Xrotation
						JOINT Head
						{
							OFFSET 0.104070 1.761360 -0.123970
							CHANNELS 3 Zrotation Yrotation Xrotation
							End Site
							{
								OFFSET 0.000000 0.000000 0.000000
							}
						}
					}
				}
				JOINT LeftShoulder
				{
					OFFSET 0.000000 0.000000 0.000000
					CHANNELS 3 Zrotation Yrotation Xrotation
					JOINT LeftArm
					{
						OFFSET 3.362410 1.200890 -0.311210
						CHANNELS 3 Zrotation Yrotation Xrotation
						JOINT LeftForeArm
						{
							OFFSET 4.983000 -0.000000 -0.000000
							CHANNELS 3 Zrotation Yrotation Xrotation
							JOINT LeftHand
							{
								OFFSET 3.483560 -0.000000 -0.000000
								CHANNELS 3 Zrotation Yrotation Xrotation
								JOINT LeftFingerBase
								{
									OFFSET 0.000000 0.000000 0.000000
									CHANNELS 3 Zrotation Yrotation Xrotation
									JOINT LeftHandIndex1
									{
										OFFSET 0.715260 -0.000000 -0.000000
										CHANNELS 3 Zrotation Yrotation Xrotation
										End Site
										{
											OFFSET 0.000000 0.000000 0.000000
										}
									}
								}
								JOINT LThumb
								{
									OFFSET 0.000000 0.000000 0.000000
									CHANNELS 3 Zrotation Yrotation Xrotation
									End Site
									{
										OFFSET 0.000000 0.000000 0.000000
									}
								}
							}
						}
					}
				}
				JOINT RightShoulder
				{
					OFFSET 0.000000 0.000000 0.000000
					CHANNELS 3 Zrotation Yrotation Xrotation
					JOINT RightArm
					{
						OFFSET -3.136600 1.374050 -0.404650
						CHANNELS 3 Zrotation Yrotation Xrotation
						JOINT RightForeArm
						{
							OFFSET -5.241900 -0.000000 -0.000000
							CHANNELS 3 Zrotation Yrotation Xrotation
							JOINT RightHand
							{
								OFFSET -3.444170 -0.000000 -0.000000
								CHANNELS 3 Zrotation Yrotation Xrotation
								JOINT RightFingerBase
								{
									OFFSET 0.000000 0.000000 0.000000
									CHANNELS 3 Zrotation Yrotation Xrotation
									JOINT RightHandIndex1
									{
										OFFSET -0.622530 -0.000000 -0.000000
										CHANNELS 3 Zrotation Yrotation Xrotation
										End Site
										{
											OFFSET 0.000000 0.000000 0.000000
										}
									}
								}
								JOINT RThumb
								{
									OFFSET 0.000000 0.000000 0.000000
									CHANNELS 3 Zrotation Yrotation Xrotation
									End Site
									{
										OFFSET 0.000000 0.000000 0.000000
									}
								}
							}
						}
					}
				}
			}
		}
	}
}
MOTION
Frames: 8
Frame Time: 0.008333
0.793629 17.278053 -1.630661 6.239793 -3.521200 21.222416 1.164243 -3.221555 -1.685419 -24.369257 5.219421 -58.409446 6.492002 18.124107 52.443760 5.484296 -7.247006 17.493877 0.032300 -1.160200 -3.189800 -6.174585 1.036419 -2.639264 13.018325 -8.604164 -59.774984 -8.355699 -19.768514 55.510361 -6.558305 12.239453 16.786196 -0.041600 1.315900 -3.618500 12.885840 -0.778614 28.662733 5.345910 4.182830 -2.596365 7.031739 3.277272 -13.906821 -0.582430 0.499550 -1.910939 -13.269981 -0.760820 1.253288 -12.327200 -0.470200 -3.894100 -9.630849 -7.170467 1.511119 -44.797071 3.709407 21.997364 61.200630 -52.700589 -49.216235 1.809618 -4.117398 -2.072810 6.863564 19.770997 2.161900 -7.125000 0.000000 0.000000 -24.493700 52.412300 -4.698300 16.487040 8.857370 2.705960 19.714749 13.923845 -5.719557 -40.855772 40.031590 -28.726815 -1.743924 3.170135 25.750740 -3.398236 11.608797 -0.071100 7.125000 0.000000 0.000000 18.753700 -20.617000 11.575500 
0.795674 17.280439 -1.628843 6.308181 -3.576054 21.233532 1.148878 -3.226261 -1.682382 -24.463859 5.244111 -58.405076 6.464524 18.101699 52.379366 5.474388 -7.212418 17.523742 0.034900 -1.205200 -3.313600 -6.180939 1.037792 -2.649725 12.932218 -8.594858 -59.765169 -8.346687 -19.768238 55.478696 -6.561549 12.262155 16.856500 -0.035300 1.212900 -3.334900 12.805724 -0.750651 28.642598 5.336553 4.189797 -2.592747 7.055280 3.284758 -13.871059 -0.642408 0.500211 -1.966654 -13.216428 -0.743934 1.282202 -12.281300 -0.464200 -3.858000 -9.631926 -7.170279 1.510803 -44.760553 3.665787 21.984575 61.272645 -52.723724 -49.307039 1.818598 -4.116017 -2.246606 6.790134 19.771201 2.133200 -7.125000 0.000000 0.000000 -24.561500 52.402800 -4.706600 16.484511 8.859216 2.707764 19.684237 13.904254 -5.696048 -40.882461 40.043111 -28.752381 -1.740102 3.173832 25.757149 -3.476336 11.556124 -0.083800 7.125000 0.000000 0.000000 18.705900 -20.670100 11.518700 
0.797606 17.286120 -1.627820 6.345606 -3.622096 21.248183 1.132508 -3.230882 -1.679608 -24.515332 5.259102 -58.385911 6.437703 18.079750 52.303286 5.442906 -7.120473 17.551755 0.036100 -1.226000 -3.370900 -6.178212 1.042734 -2.656517 12.886303 -8.586821 -59.753792 -8.332831 -19.761988 55.431811 -6.560885 12.247463 16.874723 -0.040400 1.296800 -3.565700 12.753298 -0.731424 28.656199 5.328887 4.204515 -2.598183 7.061633 3.293266 -13.882664 -0.646243 0.499570 -2.026070 -13.210729 -0.722986 1.327045 -12.279700 -0.457800 -3.809900 -9.632523 -7.168570 1.507956 -44.728929 3.652821 22.045377 61.275894 -52.715672 -49.286650 1.802492 -4.121367 -2.172708 7.043869 19.655612 2.232700 -7.125000 0.000000 0.000000 -24.248200 52.348900 -4.607400 16.486514 8.866017 2.709018 19.689724 13.886709 -5.662883 -40.903953 40.049105 -28.763555 -1.736173 3.171669 25.795568 -3.607866 11.567977 -0.106200 7.125000 0.000000 0.000000 18.611900 -20.654600 11.461000 
0.799424 17.292255 -1.627820 6.374598 -3.628802 21.242256 1.112444 -3.235113 -1.674031 -24.539066 5.260165 -58.340123 6.404134 18.054218 52.222469 5.451394 -7.131881 17.615074 0.030100 -1.120600 -3.080800 -6.169852 1.043461 -2.658372 12.861807 -8.612920 -59.728627 -8.326141 -19.753046 55.386763 -6.543087 12.149038 16.829791 -0.060600 1.588000 -4.368200 12.739119 -0.742392 28.689575 5.316856 4.191963 -2.607268 7.034894 3.286184 -13.918253 -0.592002 0.499482 -2.036165 -13.218035 -0.710867 1.358126 -12.298500 -0.453700 -3.784600 -9.632951 -7.163814 1.506601 -44.686286 3.680803 22.077504 61.258353 -52.707066 -49.263642 1.789009 -4.125798 -2.054652 7.209531 19.488031 2.287800 -7.125000 0.000000 0.000000 -23.992800 52.228100 -4.480500 16.485407 8.870342 2.711278 19.731418 13.883796 -5.600929 -40.941632 40.062417 -28.784030 -1.733280 3.169625 25.788258 -3.690963 11.573731 -0.120700 7.125000 0.000000 0.000000 18.551600 -20.647600 11.422700 
0.800219 17.293618 -1.628048 6.408770 -3.648540 21.241606 1.100752 -3.239240 -1.671572 -24.575469 5.257328 -58.324684 6.377870 18.035246 52.154584 5.441277 -7.096631 17.645418 0.032700 -1.166700 -3.207500 -6.170228 1.046891 -2.664389 12.819721 -8.609571 -59.727050 -8.316787 -19.749073 55.349006 -6.532833 12.106931 16.842349 -0.065400 1.649500 -4.537900 12.681105 -0.752085 28.725334 5.309087 4.170087 -2.614027 7.048704 3.281282 -13.958887 -0.542005 0.523766 -1.993700 -13.212985 -0.681010 1.334803 -12.307900 -0.439100 -3.799000 -9.633719 -7.157127 1.508373 -44.658711 3.737657 22.031968 61.372020 -52.754599 -49.414927 1.803721 -4.124778 -2.147769 7.079500 19.539628 2.236200 -7.125000 0.000000 0.000000 -24.152800 52.252000 -4.528000 16.480917 8.865761 2.715239 19.789602 13.884582 -5.501878 -41.043278 40.110017 -28.866128 -1.729634 3.172657 25.783566 -3.698429 11.527259 -0.121600 7.125000 0.000000 0.000000 18.551000 -20.696000 11.400800 
0.801014 17.298050 -1.629638 6.486359 -3.694859 21.224533 1.075677 -3.243524 -1.664903 -24.673001 5.285223 -58.307633 6.348446 18.008995 52.072954 5.393214 -6.966057 17.685060 0.048200 -1.417100 -3.897400 -6.166383 1.053303 -2.675992 12.717241 -8.591906 -59.674555 -8.291840 -19.735304 55.262917 -6.530112 12.078559 16.897309 -0.062600 1.614000 -4.440200 12.534741 -0.762425 28.757185 5.311172 4.123509 -2.613329 7.142621 3.275904 -13.976085 -0.555217 0.558674 -1.955412 -13.207557 -0.632879 1.320037 -12.305800 -0.413700 -3.804100 -9.633309 -7.149651 1.509006 -44.696079 3.822208 21.924013 61.502108 -52.811921 -49.580548 1.816133 -4.122106 -2.220958 7.006211 19.599446 2.208400 -7.125000 0.000000 0.000000 -24.262400 52.291800 -4.575200 16.476538 8.865240 2.714098 19.830637 13.929473 -5.389197 -41.115888 40.148747 -28.915160 -1.729629 3.170999 25.757593 -3.667966 11.568876 -0.117400 7.125000 0.000000 0.000000 18.565800 -20.656800 11.428400 
0.803173 17.309411 -1.627366 6.493042 -3.747648 21.195891 1.043535 -3.249501 -1.661639 -24.695057 5.364202 -58.242695 6.314532 17.975766 51.971310 5.380044 -6.902312 17.720863 0.054000 -1.499500 -4.124300 -6.139323 1.062055 -2.680557 12.687880 -8.584664 -59.584919 -8.253283 -19.708512 55.146309 -6.506477 11.966744 16.949620 -0.075500 1.772000 -4.875900 12.510699 -0.750029 28.763253 5.307845 4.131454 -2.601186 7.152807 3.280223 -13.940117 -0.595546 0.557204 -1.944641 -13.175769 -0.637240 1.322035 -12.275100 -0.413300 -3.807400 -9.632781 -7.146649 1.511928 -44.704341 3.837293 21.903286 61.586279 -52.841456 -49.659059 1.808958 -4.124766 -2.232138 7.215016 19.549227 2.293300 -7.125000 0.000000 0.000000 -24.032000 52.288600 -4.525500 16.471332 8.859877 2.711392 19.839041 13.938661 -5.355902 -41.133983 40.173892 -28.943318 -1.728114 3.153065 25.738961 -3.769479 11.944974 -0.141200 7.125000 0.000000 0.000000 18.444100 -20.283200 11.510100 
0.806241 17.323955 -1.622026 6.376045 -3.815776 21.123732 1.004518 -3.255174 -1.663671 -24.584766 5.524303 -58.114585 6.281612 17.938782 51.856124 5.394860 -6.893549 17.802931 0.053900 -1.497800 -4.119700 -6.071410 1.081966 -2.670220 12.728396 -8.535425 -59.400927 -8.179389 -19.658771 54.992153 -6.540390 12.055115 17.124019 -0.049300 1.433300 -3.941900 12.621768 -0.734341 28.828663 5.307150 4.195760 -2.575045 7.092325 3.294622 -13.899018 -0.609415 0.548804 -1.909247 -13.151989 -0.666539 1.275354 -12.247900 -0.425200 -3.851400 -9.632276 -7.150484 1.521369 -44.673732 3.798655 21.888277 61.666108 -52.867122 -49.741037 1.808259 -4.126491 -2.237353 7.292229 19.517446 2.322800 -7.125000 0.000000 0.000000 -23.941500 52.275900 -4.499000 16.464525 8.847314 2.710020 19.837669 13.927445 -5.367595 -41.187411 40.230730 -29.046038 -1.727635 3.129606 25.680904 -3.745490 12.557553 -0.147900 7.125000 0.000000 0.000000 18.380900 -19.683000 11.729300 
